<svg width="73" height="64" viewBox="0 0 73 64" fill="none" xmlns="http://www.w3.org/2000/svg">
<path fill-rule="evenodd" clip-rule="evenodd" d="M71.502 30.1284L68.2802 29.0506V27.3369C68.3254 16.819 59.7944 7.43475 47.0312 3.96384V1.54868C47.0312 0.831786 46.2833 0.25 45.3623 0.25H27.5014C26.5804 0.25 25.8325 0.831786 25.8325 1.54868V3.9766C13.0693 7.44751 4.53827 16.8318 4.58352 27.3497V29.0766L1.39513 30.1284C0.777361 30.3313 0.376831 30.8026 0.376831 31.3232V38.1405C0.376831 38.8569 1.12471 39.4387 2.04627 39.4387H4.21637V42.0361C4.21637 42.7525 4.96369 43.3343 5.88525 43.3343H11.8779C12.447 44.96 13.2832 46.5236 14.3648 47.9829L10.1253 51.2813C9.47757 51.7874 9.47757 52.6055 10.1253 53.112L17.2194 58.6306C17.87 59.1345 18.9217 59.1345 19.5728 58.6306L23.8123 55.3327C25.6837 56.1741 27.687 56.8232 29.7716 57.2673V61.929C29.7716 62.6455 30.5195 63.2273 31.4411 63.2273H41.456C42.3776 63.2273 43.1255 62.6455 43.1255 61.929V57.2673C45.2152 56.8245 47.2247 56.1754 49.1012 55.3327L53.3412 58.6306C53.9918 59.1345 55.0435 59.1345 55.6946 58.6306L62.7887 53.112C63.4365 52.6055 63.4365 51.7874 62.7887 51.2813L58.5487 47.9829C59.6303 46.5236 60.467 44.96 61.0361 43.3343H67.0283C67.9498 43.3343 68.6977 42.7525 68.6977 42.0361V39.4387H70.8678C71.7894 39.4387 72.5367 38.8569 72.5367 38.1405V31.3232C72.5333 30.7986 72.1248 30.3273 71.502 30.1284ZM29.1374 2.86022H43.693V24.5579H29.1708L29.1374 2.86022ZM59.8176 40.7373H65.3758L65.3594 39.4387H50.0861C49.3246 44.3262 44.3723 48.1778 38.0894 48.771C30.5478 49.4839 23.6924 45.3054 22.7777 39.4387H7.52135V40.7373H13.0795C13.8806 40.7228 14.5798 41.1541 14.749 41.7627C15.3311 43.7897 16.3828 45.7169 17.8536 47.4503C18.2825 47.9635 18.1908 48.6399 17.6364 49.0733L13.647 52.1768L18.3707 55.8519L22.3602 52.7485C22.918 52.3172 23.7875 52.2459 24.4471 52.5795C26.6885 53.7144 29.1777 54.5193 31.7913 54.9559C32.5742 55.087 33.1286 55.631 33.11 56.2541V60.669H39.7866V56.2933C39.7685 55.6702 40.3223 55.1258 41.1053 54.9946C43.7195 54.5572 46.2081 53.7518 48.45 52.6186C49.1096 52.2846 49.9792 52.3563 50.5364 52.7872L54.5258 55.8906L59.3 52.2028L55.3105 49.0993C54.7567 48.6658 54.6644 47.9894 55.0938 47.4763C56.5511 45.7323 57.5858 43.7963 58.1481 41.7627C58.3167 41.1541 59.0165 40.7228 59.8176 40.7373ZM26.1828 39.4387H46.7308C45.8126 43.8563 40.4643 46.8585 34.7862 46.1443C30.3561 45.5871 26.8826 42.885 26.1664 39.4387H26.1828ZM3.69872 36.8419H69.2147V32.2061L65.9935 31.1283C65.3758 30.9259 64.9752 30.4545 64.9752 29.9339V27.3366C65.0222 18.2563 57.9162 10.0783 47.0645 6.72928V25.8566C47.0645 26.573 46.3167 27.1548 45.3951 27.1548H27.5014C26.5798 27.1548 25.8325 26.573 25.8325 25.8566V6.72928C14.999 10.0796 7.90145 18.2418 7.93822 27.3106V29.9075C7.93822 30.4286 7.53769 30.8999 6.91993 31.1023L3.69872 32.1801V36.8419Z" fill="#122A71"/>
</svg>
