<svg width="343" height="209" viewBox="0 0 343 209" fill="none" xmlns="http://www.w3.org/2000/svg">
<g filter="url(#filter0_d_8_14)">
<path d="M35.1896 48.698L32.7671 48.0804L35.1896 48.698ZM21.0336 201.5L4.80991 177.623L33.6001 175.511L21.0336 201.5ZM338.034 19.9926C337.57 22.4492 337.57 22.4492 337.57 22.4492C337.57 22.4492 337.57 22.4492 337.57 22.4492C337.57 22.4492 337.57 22.4492 337.57 22.4492C337.57 22.4492 337.569 22.4492 337.569 22.4491C337.568 22.449 337.567 22.4488 337.566 22.4485C337.563 22.4479 337.558 22.4471 337.552 22.4459C337.54 22.4436 337.521 22.4401 337.496 22.4353C337.445 22.4259 337.37 22.4117 337.269 22.393C337.067 22.3555 336.765 22.2997 336.367 22.2269C335.57 22.0814 334.388 21.8681 332.852 21.5976L333.719 16.6733C335.266 16.9458 336.458 17.161 337.265 17.3083C337.668 17.382 337.975 17.4387 338.182 17.4771C338.285 17.4963 338.363 17.5109 338.416 17.5208C338.443 17.5257 338.463 17.5295 338.476 17.532C338.483 17.5333 338.488 17.5342 338.492 17.5349C338.493 17.5352 338.495 17.5355 338.496 17.5357C338.496 17.5358 338.496 17.5358 338.497 17.5359C338.497 17.5359 338.497 17.5359 338.497 17.536C338.497 17.536 338.497 17.536 338.497 17.536C338.497 17.536 338.497 17.536 338.034 19.9926ZM322.99 19.9212C320.062 19.4395 316.743 18.9061 313.076 18.3367L313.843 13.3959C317.526 13.9678 320.86 14.5035 323.801 14.9875L322.99 19.9212ZM303.133 16.8354C300 16.3756 296.696 15.9031 293.24 15.4242L293.926 10.4715C297.396 10.9523 300.713 11.4267 303.859 11.8884L303.133 16.8354ZM283.36 14.0956C280.164 13.6788 276.869 13.2617 273.485 12.8483L274.091 7.88517C277.489 8.30034 280.798 8.71915 284.007 9.13756L283.36 14.0956ZM263.59 11.6808C260.344 11.3116 257.033 10.9487 253.667 10.5952L254.189 5.62253C257.57 5.9776 260.895 6.34208 264.155 6.71283L263.59 11.6808ZM243.717 9.59546C240.433 9.28065 237.107 8.97698 233.747 8.68706L234.177 3.70557C237.554 3.9969 240.895 4.30202 244.194 4.61828L243.717 9.59546ZM223.814 7.87981C220.52 7.62901 217.202 7.39334 213.866 7.17515L214.192 2.18581C217.547 2.40521 220.883 2.64215 224.193 2.89425L223.814 7.87981ZM203.897 6.58017C200.582 6.40172 197.256 6.24247 193.926 6.10465L194.132 1.10893C197.484 1.24764 200.831 1.40788 204.165 1.5874L203.897 6.58017ZM183.962 5.75872C180.633 5.66596 177.306 5.59679 173.987 5.55342L174.053 0.553851C177.397 0.597556 180.749 0.667249 184.101 0.760664L183.962 5.75872ZM164.022 5.50307C160.689 5.51387 157.372 5.55332 154.077 5.6237L153.97 0.624841C157.297 0.553782 160.644 0.513984 164.006 0.503093L164.022 5.50307ZM144.105 5.93649C140.756 6.07648 137.438 6.25187 134.158 6.46515L133.834 1.47569C137.154 1.25977 140.511 1.08236 143.896 0.940856L144.105 5.93649ZM124.256 7.23804C120.923 7.54386 117.64 7.89361 114.416 8.29005L113.806 3.32742C117.084 2.9243 120.418 2.56916 123.799 2.25895L124.256 7.23804ZM104.584 9.67694C101.248 10.2119 97.992 10.8043 94.8249 11.4574L93.8152 6.56037C97.0602 5.89125 100.39 5.28579 103.792 4.74004L104.584 9.67694ZM85.2017 13.7069C81.9323 14.5695 78.7869 15.5091 75.7782 16.5298L74.172 11.7948C77.2998 10.7337 80.5563 9.76146 83.9261 8.87233L85.2017 13.7069ZM66.6618 20.0646C63.5805 21.4295 60.7011 22.9024 58.0401 24.4881L55.4806 20.1929C58.3332 18.493 61.3936 16.9296 64.6367 15.493L66.6618 20.0646ZM50.2322 30.0024C47.7333 32.1124 45.5528 34.3738 43.7097 36.7938L39.732 33.7644C41.8177 31.0256 44.2575 28.5032 47.0065 26.1821L50.2322 30.0024ZM39.0765 44.863C38.4933 46.296 38.0037 47.7794 37.6121 49.3156L32.7671 48.0804C33.215 46.3236 33.7759 44.6231 34.4453 42.9783L39.0765 44.863ZM37.6121 49.3156C37.2152 50.8724 36.8283 52.4252 36.4512 53.9737L31.5932 52.7906C31.9745 51.2249 32.3657 49.6547 32.7671 48.0804L37.6121 49.3156ZM34.2845 63.2969C33.5877 66.4439 32.9302 69.5689 32.3101 72.6681L27.4073 71.6871C28.034 68.5552 28.6984 65.397 29.4027 62.216L34.2845 63.2969ZM30.5229 82.0897C29.952 85.2717 29.4196 88.4214 28.9233 91.5348L23.9856 90.7477C24.4869 87.6031 25.0247 84.4214 25.6015 81.2067L30.5229 82.0897ZM27.507 101.001C27.0564 104.221 26.6438 107.395 26.2663 110.519L21.3024 109.919C21.6836 106.765 22.1002 103.56 22.5553 100.308L27.507 101.001ZM25.2059 120.031C24.8734 123.284 24.5785 126.472 24.3176 129.589L19.3351 129.172C19.5984 126.025 19.8961 122.807 20.2318 119.522L25.2059 120.031ZM23.6065 139.124C23.3907 142.421 23.2124 145.622 23.0666 148.716L18.0722 148.481C18.2193 145.357 18.3993 142.126 18.6172 138.798L23.6065 139.124ZM22.7041 158.298C22.6083 161.655 22.5502 164.854 22.5217 167.88L17.5219 167.833C17.5507 164.776 17.6094 161.545 17.7062 158.155L22.7041 158.298ZM22.5268 177.458C22.5649 181.007 22.6408 184.211 22.7344 187.033L17.7371 187.198C17.6423 184.341 17.5656 181.1 17.527 177.512L22.5268 177.458Z" fill="#122A71"/>
</g>
<defs>
<filter id="filter0_d_8_14" x="0.809937" y="0.503082" width="341.687" height="208.997" filterUnits="userSpaceOnUse" color-interpolation-filters="sRGB">
<feFlood flood-opacity="0" result="BackgroundImageFix"/>
<feColorMatrix in="SourceAlpha" type="matrix" values="0 0 0 0 0 0 0 0 0 0 0 0 0 0 0 0 0 0 127 0" result="hardAlpha"/>
<feOffset dy="4"/>
<feGaussianBlur stdDeviation="2"/>
<feComposite in2="hardAlpha" operator="out"/>
<feColorMatrix type="matrix" values="0 0 0 0 0 0 0 0 0 0 0 0 0 0 0 0 0 0 0.25 0"/>
<feBlend mode="normal" in2="BackgroundImageFix" result="effect1_dropShadow_8_14"/>
<feBlend mode="normal" in="SourceGraphic" in2="effect1_dropShadow_8_14" result="shape"/>
</filter>
</defs>
</svg>
