<svg width="246" height="239" viewBox="0 0 246 239" fill="none" xmlns="http://www.w3.org/2000/svg">
<g filter="url(#filter0_d_6_11)">
<path d="M234.5 61L236.949 60.4984L234.5 61ZM205.511 230.036L231.125 216.721L206.787 201.196L205.511 230.036ZM4.9837 18.8944C5.63581 21.3079 5.63577 21.3079 5.63574 21.3079C5.63573 21.3079 5.6357 21.3079 5.6357 21.3079C5.63568 21.3079 5.63569 21.3079 5.63573 21.3079C5.6358 21.3079 5.63598 21.3078 5.63625 21.3077C5.6368 21.3076 5.63776 21.3073 5.63912 21.307C5.64184 21.3062 5.64617 21.3051 5.65211 21.3035C5.66399 21.3003 5.6823 21.2954 5.70697 21.2888C5.7563 21.2756 5.83106 21.2556 5.93069 21.2293C6.12997 21.1766 6.42874 21.0981 6.82259 20.9963C7.61032 20.7925 8.77832 20.4952 10.2913 20.1231L9.09711 15.2678C7.56393 15.6449 6.37668 15.9471 5.5707 16.1555C5.1677 16.2597 4.86 16.3405 4.65201 16.3956C4.54802 16.4231 4.46895 16.4441 4.41537 16.4585C4.38857 16.4656 4.36815 16.4711 4.35416 16.4749C4.34717 16.4767 4.34179 16.4782 4.33802 16.4792C4.33614 16.4797 4.33466 16.4801 4.33359 16.4804C4.33306 16.4806 4.33262 16.4807 4.33229 16.4808C4.33212 16.4808 4.33198 16.4808 4.33186 16.4809C4.33181 16.4809 4.33174 16.4809 4.33171 16.4809C4.33165 16.4809 4.33159 16.4809 4.9837 18.8944ZM19.8619 17.8828C22.6954 17.2496 25.897 16.5587 29.416 15.8372L28.4116 10.9391C24.8621 11.6669 21.6318 12.3639 18.7715 13.0032L19.8619 17.8828ZM39.0967 13.9376C42.155 13.3643 45.3714 12.7865 48.7237 12.2161L47.8849 7.28692C44.5037 7.86227 41.2598 8.44499 38.1754 9.02322L39.0967 13.9376ZM58.4102 10.6533C61.5658 10.1724 64.8104 9.70561 68.1289 9.26112L67.4651 4.30538C64.1153 4.75408 60.8408 5.22513 57.6568 5.71042L58.4102 10.6533ZM77.8697 8.05041C81.0757 7.6835 84.3327 7.34253 87.6285 7.03396L87.1624 2.05573C83.8307 2.36766 80.5395 2.71222 77.3012 3.08284L77.8697 8.05041ZM97.4021 6.22735C100.642 5.99686 103.908 5.80237 107.186 5.64965L106.954 0.655062C103.632 0.809787 100.326 1.00672 97.0473 1.23996L97.4021 6.22735ZM116.976 5.32399C120.239 5.2604 123.504 5.24336 126.762 5.27839L126.815 0.278677C123.505 0.243075 120.189 0.260426 116.878 0.324936L116.976 5.32399ZM136.533 5.54678C139.804 5.69373 143.056 5.89973 146.276 6.17043L146.695 1.18801C143.406 0.911522 140.09 0.701496 136.758 0.55182L136.533 5.54678ZM155.968 7.19974C159.221 7.62143 162.429 8.11829 165.579 8.69641L166.481 3.77856C163.239 3.18351 159.945 2.67338 156.61 2.24121L155.968 7.19974ZM175.064 10.7357C178.247 11.5274 181.349 12.4159 184.358 13.408L185.924 8.65938C182.788 7.62546 179.565 6.70303 176.271 5.88361L175.064 10.7357ZM193.362 16.8181C196.35 18.1113 199.213 19.5292 201.936 21.0794L204.41 16.734C201.516 15.0871 198.49 13.5892 195.349 12.2296L193.362 16.8181ZM209.889 26.2988C212.433 28.2244 214.806 30.3052 216.989 32.5505L220.573 29.0649C218.204 26.6282 215.641 24.3813 212.907 22.312L209.889 26.2988ZM222.977 39.8229C224.734 42.3647 226.296 45.0804 227.644 47.9816L232.178 45.8738C230.71 42.7149 229.007 39.7534 227.091 36.9803L222.977 39.8229ZM230.913 56.8222C231.342 58.338 231.722 59.8974 232.051 61.5016L236.949 60.4984C236.596 58.7757 236.187 57.0966 235.724 55.46L230.913 56.8222ZM232.051 61.5016C232.378 63.0989 232.687 64.6885 232.978 66.2705L237.895 65.3663C237.598 63.7513 237.283 62.1286 236.949 60.4984L232.051 61.5016ZM234.531 75.7984C234.991 79.0275 235.377 82.2216 235.695 85.379L240.67 84.8779C240.345 81.6533 239.95 78.3914 239.481 75.0941L234.531 75.7984ZM236.464 94.9953C236.657 98.2501 236.778 101.462 236.835 104.629L241.834 104.541C241.776 101.305 241.652 98.0242 241.455 94.6998L236.464 94.9953ZM236.806 114.289C236.728 117.561 236.582 120.78 236.375 123.944L241.364 124.271C241.576 121.039 241.725 117.751 241.804 114.408L236.806 114.289ZM235.546 133.562C235.198 136.815 234.787 140.002 234.323 143.12L239.269 143.857C239.743 140.672 240.162 137.417 240.517 134.095L235.546 133.562ZM232.703 152.655C232.085 155.889 231.413 159.038 230.698 162.098L235.567 163.236C236.297 160.111 236.983 156.896 237.614 153.594L232.703 152.655ZM228.31 171.452C227.424 174.651 226.497 177.735 225.544 180.7L230.304 182.23C231.277 179.203 232.224 176.053 233.129 172.787L228.31 171.452ZM222.397 189.842C221.231 193.014 220.051 196.013 218.879 198.831L223.495 200.751C224.693 197.871 225.899 194.806 227.09 191.567L222.397 189.842ZM214.98 207.662C213.476 210.876 212.033 213.749 210.709 216.26L215.132 218.593C216.491 216.015 217.969 213.071 219.509 209.782L214.98 207.662Z" fill="#122A71"/>
</g>
<defs>
<filter id="filter0_d_6_11" x="0.331709" y="0.260498" width="245.502" height="237.775" filterUnits="userSpaceOnUse" color-interpolation-filters="sRGB">
<feFlood flood-opacity="0" result="BackgroundImageFix"/>
<feColorMatrix in="SourceAlpha" type="matrix" values="0 0 0 0 0 0 0 0 0 0 0 0 0 0 0 0 0 0 127 0" result="hardAlpha"/>
<feOffset dy="4"/>
<feGaussianBlur stdDeviation="2"/>
<feComposite in2="hardAlpha" operator="out"/>
<feColorMatrix type="matrix" values="0 0 0 0 0 0 0 0 0 0 0 0 0 0 0 0 0 0 0.25 0"/>
<feBlend mode="normal" in2="BackgroundImageFix" result="effect1_dropShadow_6_11"/>
<feBlend mode="normal" in="SourceGraphic" in2="effect1_dropShadow_6_11" result="shape"/>
</filter>
</defs>
</svg>
