<svg width="74" height="67" viewBox="0 0 74 67" fill="none" xmlns="http://www.w3.org/2000/svg">
<path fill-rule="evenodd" clip-rule="evenodd" d="M23.9178 64.739L23.9178 18.628L51.3829 18.628C52.2969 18.628 53.0386 18.0365 53.0386 17.3071L53.0386 1.58455C53.0386 0.855136 52.2969 0.263184 51.3829 0.263184L2.64462 0.263184C1.73064 0.263184 0.988918 0.855136 0.988918 1.58455L0.988918 64.739C0.988918 65.4684 1.73064 66.0603 2.64462 66.0603L22.2621 66.0603C23.1761 66.0603 23.9178 65.4684 23.9178 64.739ZM49.7272 2.90544V15.9856L22.941 15.9856L6.63435 2.90544L49.7272 2.90544ZM4.30036 4.78155L4.30036 63.4178L20.607 63.6027V59.2424H16.5012C15.5872 59.2424 14.8455 58.6509 14.8455 57.9214C14.8455 57.192 15.5872 56.6001 16.5012 56.6001H20.607V53.9578H16.5012C15.5872 53.9578 14.8455 53.3658 14.8455 52.6364C14.8455 51.907 15.5872 51.3151 16.5012 51.3151H20.607V48.6728H12.9918C12.0778 48.6728 11.3361 48.0808 11.3361 47.3514C11.3361 46.6224 12.0778 46.0305 12.9918 46.0305H20.607V43.3878H16.5012C15.5872 43.3878 14.8455 42.7958 14.8455 42.0668C14.8455 41.3374 15.5872 40.7455 16.5012 40.7455H20.607V38.1032H16.5012C15.5872 38.1032 14.8455 37.5112 14.8455 36.7818C14.8455 36.0524 15.5872 35.4605 16.5012 35.4605H20.607V32.8182H12.9918C12.0778 32.8182 11.3361 32.2262 11.3361 31.4968C11.3361 30.7674 12.0778 30.1759 12.9918 30.1759L20.607 30.1759V27.5331L16.5012 27.5331C15.5872 27.5331 14.8455 26.9412 14.8455 26.2118C14.8455 25.4828 15.5872 24.8909 16.5012 24.8909L20.607 24.8909V22.2481L16.5012 22.2481C15.5872 22.2481 14.8455 21.6566 14.8455 20.9272C14.8455 20.1978 15.5872 19.6058 16.5012 19.6058L20.607 19.6058V17.796L4.30036 4.78155Z" fill="#122A71"/>
<path fill-rule="evenodd" clip-rule="evenodd" d="M25.8308 33.548L25.8309 33.5515L25.8308 33.5616V33.548ZM25.8309 33.5515C25.8351 33.8345 25.9515 34.1098 26.1628 34.3361L37.9013 47.2112C37.9013 47.2112 38.0341 47.2913 38.1004 47.3447C38.1263 47.3655 38.1446 47.3863 38.1621 47.4063L38.1622 47.4063C38.1897 47.4377 38.2156 47.4672 38.2664 47.4918L61.2612 61.1015C62.9694 62.3237 65.4019 62.6414 67.5035 61.9163C68.6108 61.4741 69.5589 60.8132 70.26 59.993L71.6543 58.4305C72.5624 57.5062 73.0857 56.375 73.1487 55.1981C73.0807 53.5609 72.0048 52.0581 70.2763 51.1913L47.2152 37.635C47.1206 37.5911 47.0194 37.5562 46.9164 37.5282C46.9164 37.5282 46.8168 37.5282 46.7667 37.448L28.0224 32.2924C27.1542 32.0561 26.2112 32.4313 25.9192 33.1298C25.862 33.2656 25.8322 33.4078 25.8309 33.5515ZM68.317 53.3819C69.1622 53.7648 69.7299 54.4488 69.8447 55.2246C69.7749 55.8352 69.4744 56.4133 68.9815 56.8809L67.5867 58.4036C67.2181 58.8549 66.7168 59.2279 66.1254 59.4854L66.1141 59.4895C65.8039 59.6006 64.8927 59.9272 63.2367 58.9513L61.7428 58.0695L64.2827 55.2916L66.8063 52.5001L68.317 53.3819ZM62.5728 52.6208L64.1337 50.9111L46.6339 40.5867L41.5536 46.143L59.0533 56.4674L60.6136 54.7709L47.0993 46.7572C47.0408 46.7264 46.9862 46.6943 46.9333 46.6581C46.2294 46.1869 46.1343 45.344 46.7206 44.7778C47.3063 44.2115 48.354 44.1341 49.0579 44.6067L62.5728 52.6208ZM43.5961 39.3844L39.2292 44.1661L36.5233 41.2008L39.2624 38.1957L43.5961 39.3844ZM34.4645 38.9436L35.9753 37.2878L31.9573 36.1924L34.4645 38.9436Z" fill="#122A71"/>
</svg>
