<svg width="84" height="88" viewBox="0 0 84 88" fill="none" xmlns="http://www.w3.org/2000/svg">
<path d="M6.78579 44V12H4.12702L7.31754 3.5H12.6351L15.8256 12H13.1668V44M6.78579 44H13.1668M6.78579 44L2 44.5V48L5.19052 49.5V53.5L2 55.5V80.5L7.31754 86.5H13.6986L17.9526 80.5V55.5L14.7621 53.5V49.5L17.4209 48V44.5L13.1668 44M8.9128 57.5V81M8.9128 57.5L11.5716 81M8.9128 57.5H9.57749M8.9128 81L11.5716 57.5M8.9128 81H9.44456M11.5716 81V57.5M11.5716 81H10.9069M11.5716 57.5H10.9069M10.2422 81V57.5M10.2422 81H9.44456M10.2422 81H10.9069M10.2422 57.5H9.57749M10.2422 57.5H10.9069M9.57749 57.5L9.44456 81M10.9069 81V57.5" stroke="#122A71" stroke-width="3"/>
<path d="M38.6911 44V12L41.3498 2.5H42.4133L45.0721 12V44M38.6911 44H45.0721M38.6911 44L33.9053 44.5V48L37.0958 49.5V53.5L33.9053 55.5V80.5L39.2228 86.5H45.6039L49.8579 80.5V55.5L46.6674 53.5V49.5L49.3261 48V44.5L45.0721 44M40.8181 57.5V81M40.8181 57.5L43.4768 81M40.8181 57.5H41.4828M40.8181 81L43.4768 57.5M40.8181 81H41.3498M43.4768 81V57.5M43.4768 81H42.8122M43.4768 57.5H42.8122M42.1475 81V57.5M42.1475 81H41.3498M42.1475 81H42.8122M42.1475 57.5H41.4828M42.1475 57.5H42.8122M41.4828 57.5L41.3498 81M42.8122 81V57.5" stroke="#122A71" stroke-width="3"/>
<path d="M70.5963 44V15.5H68.4693V2H79.6362V15.5H76.9774V44M70.5963 44H76.9774M70.5963 44L65.8105 44.5V48L69.0011 49.5V53.5L65.8105 55.5V80.5L71.1281 86.5H77.5091L81.7632 80.5V55.5L78.5726 53.5V49.5L81.2314 48V44.5L76.9774 44M72.7233 57.5V81M72.7233 57.5L75.3821 81M72.7233 57.5H73.388M72.7233 81L75.3821 57.5M72.7233 81H73.2551M75.3821 81V57.5M75.3821 81H74.7174M75.3821 57.5H74.7174M74.0527 81V57.5M74.0527 81H73.2551M74.0527 81H74.7174M74.0527 57.5H73.388M74.0527 57.5H74.7174M73.388 57.5L73.2551 81M74.7174 81V57.5" stroke="#122A71" stroke-width="3"/>
</svg>
